<?xml version="1.0" standalone="no"?><!DOCTYPE svg PUBLIC "-//W3C//DTD SVG 1.1//EN" "http://www.w3.org/Graphics/SVG/1.1/DTD/svg11.dtd"><svg t="1530265319850" class="icon" style="" viewBox="0 0 1024 1024" version="1.1" xmlns="http://www.w3.org/2000/svg" p-id="9700" xmlns:xlink="http://www.w3.org/1999/xlink" width="32" height="32"><defs><style type="text/css"></style></defs><path d="M511.4 3C307.6 3 135.9 144.2 80.7 337 31.2 366.8 2.3 424.1 2.3 491.2c0 97.3 59.3 176.2 156.6 176.2 21.7 0 39.2-17.5 39.2-39.2v-274c0-18-12.8-32.1-29.4-36.7C225.9 177.1 357.9 78.9 511.4 78.9S796.8 177.1 854 317.5c-16.6 4.6-29.4 18.7-29.4 36.7v274.1c0 21.7 17.5 39.2 39.2 39.2 9.1 0 17.3-1.1 25.7-2.4-12.7 73.1-43.3 127.5-74.6 165.2-19.5 23.5-39.5 40.5-55.1 51.4-7.8 5.4-13.8 8.8-18.4 11-2.3 1.1-4.1 2.1-4.9 2.4h-73.4c-14.1-40.9-59-71-112.6-71-64.9 0-117.5 43.8-117.5 97.9s52.6 97.9 117.5 97.9c53.6 0 98.5-30.1 112.6-71h77.1c13.2 0 16.6-3.5 24.5-7.3 7.9-3.8 17.1-9.1 26.9-15.9 19.6-13.7 43.2-33.7 66.1-61.2C899 814.8 937.4 741 947 641.8c46.2-30.6 73.4-85.8 73.4-150.5 0-67.1-28.9-124.4-78.3-154.2C886.8 144.2 715.1 3 511.4 3z" p-id="9701"></path></svg>