<?xml version="1.0" standalone="no"?><!DOCTYPE svg PUBLIC "-//W3C//DTD SVG 1.1//EN" "http://www.w3.org/Graphics/SVG/1.1/DTD/svg11.dtd"><svg t="1530265207866" class="icon" style="" viewBox="0 0 1024 1024" version="1.1" xmlns="http://www.w3.org/2000/svg" p-id="6293" xmlns:xlink="http://www.w3.org/1999/xlink" width="32" height="32"><defs><style type="text/css"></style></defs><path d="M974.08 147.2a24.39168 24.39168 0 0 0-24.32 24.32v741.76c0 20.66944-15.81056 36.48-36.48 36.48H110.72c-20.67456 0-36.48-15.80544-36.48-36.48V110.72c0-20.67456 15.80544-36.48 36.48-36.48h705.28c20.67456 0 36.48 15.81056 36.48 36.48v680.96c0 13.37856 10.94656 24.32 24.32 24.32s24.32-10.94656 24.32-24.32v-680.96C901.12 63.29856 863.42144 25.6 816 25.6H110.72C63.29856 25.6 25.6 63.29856 25.6 110.72v802.56C25.6 960.70144 63.29856 998.4 110.72 998.4h802.56c47.42144 0 85.12-37.69856 85.12-85.12V171.52a24.39168 24.39168 0 0 0-24.32-24.32z" p-id="6294"></path><path d="M199.48544 487.68H414.72c34.048 0 60.8-26.752 60.8-60.8V220.16c0-34.048-26.752-60.8-60.8-60.8H199.48544c-34.048 0-60.8 26.752-60.8 60.8v206.72c0 34.048 26.75712 60.8 60.8 60.8zM187.33056 220.16c0-6.08256 6.08256-12.16 12.16-12.16H414.72c6.08256 0 12.16 6.08256 12.16 12.16v206.72c0 6.08256-6.08256 12.16-12.16 12.16H199.48544c-6.07744 0-12.16-6.08256-12.16-12.16L187.33056 220.16zM767.36 426.88h-194.56c-13.37856 0-24.32 10.94144-24.32 24.32s10.94144 24.32 24.32 24.32h194.56c13.37856 0 24.32-10.94144 24.32-24.32s-10.94144-24.32-24.32-24.32zM767.36 560.64H159.36a24.3968 24.3968 0 0 0-24.32 24.32 24.3968 24.3968 0 0 0 24.32 24.32h608a24.39168 24.39168 0 0 0 24.32-24.32 24.39168 24.39168 0 0 0-24.32-24.32zM767.36 682.24H159.36c-13.37344 0-24.32 10.94144-24.32 24.32s10.94656 24.32 24.32 24.32h608c13.37856 0 24.32-10.94656 24.32-24.32s-10.94144-24.32-24.32-24.32zM767.36 803.84H159.36c-13.37344 0-24.32 10.94144-24.32 24.32s10.94656 24.32 24.32 24.32h608c13.37856 0 24.32-10.94656 24.32-24.32s-10.94144-24.32-24.32-24.32zM767.36 171.52h-194.56c-13.37856 0-24.32 10.94656-24.32 24.32s10.94144 24.32 24.32 24.32h194.56c13.37856 0 24.32-10.94656 24.32-24.32s-10.94144-24.32-24.32-24.32zM767.36 293.12h-194.56c-13.37856 0-24.32 10.94144-24.32 24.32s10.94144 24.32 24.32 24.32h194.56c13.37856 0 24.32-10.94144 24.32-24.32s-10.94144-24.32-24.32-24.32z" p-id="6295"></path></svg>