<?xml version="1.0" standalone="no"?><!DOCTYPE svg PUBLIC "-//W3C//DTD SVG 1.1//EN" "http://www.w3.org/Graphics/SVG/1.1/DTD/svg11.dtd"><svg t="1530265299262" class="icon" style="" viewBox="0 0 1024 1024" version="1.1" xmlns="http://www.w3.org/2000/svg" p-id="9014" xmlns:xlink="http://www.w3.org/1999/xlink" width="32" height="32"><defs><style type="text/css"></style></defs><path d="M1002.24 381.44L706.56 84.48c-11.52-11.52-26.88-17.92-42.24-17.92s-30.72 6.4-42.24 17.92l-134.4 134.4-84.48-84.48c-11.52-11.52-26.88-17.92-42.24-17.92s-30.72 6.4-42.24 17.92L21.76 430.08c-23.04 23.04-23.04 61.44 0 84.48l423.68 423.68c11.52 11.52 26.88 17.92 42.24 17.92s30.72-6.4 42.24-17.92L825.6 642.56c1.28-1.28 1.28-2.56 2.56-2.56l174.08-174.08c24.32-23.04 24.32-61.44 0-84.48z m-499.2 529.92c-8.96 8.96-21.76 8.96-30.72 0L48.64 487.68c-8.96-8.96-8.96-21.76 0-30.72l295.68-295.68c3.84-3.84 8.96-6.4 15.36-6.4s11.52 2.56 15.36 6.4L469.76 256c1.28 1.28 1.28 3.84 2.56 5.12s2.56 2.56 5.12 2.56l321.28 321.28c7.68 7.68 8.96 19.2 2.56 28.16l-55.04 55.04-166.4-165.12c-7.68-7.68-19.2-7.68-26.88 0s-7.68 19.2 0 26.88l167.68 165.12L672 743.68 506.88 578.56c-7.68-7.68-19.2-7.68-26.88 0s-7.68 19.2 0 26.88l165.12 165.12-47.36 47.36-167.68-166.4c-7.68-7.68-19.2-7.68-26.88 0s-7.68 19.2 0 26.88l166.4 166.4-66.56 66.56z m472.32-472.32L838.4 576c-2.56-6.4-6.4-12.8-12.8-17.92L514.56 245.76l134.4-133.12c7.68-7.68 21.76-7.68 30.72 0L976.64 409.6c7.68 7.68 7.68 20.48-1.28 29.44z" p-id="9015"></path></svg>