<?xml version="1.0" standalone="no"?><!DOCTYPE svg PUBLIC "-//W3C//DTD SVG 1.1//EN" "http://www.w3.org/Graphics/SVG/1.1/DTD/svg11.dtd"><svg t="1530264970673" class="icon" style="" viewBox="0 0 1024 1024" version="1.1" xmlns="http://www.w3.org/2000/svg" p-id="2863" xmlns:xlink="http://www.w3.org/1999/xlink" width="32" height="32"><defs><style type="text/css"></style></defs><path d="M59.081981 0a56.009669 56.009669 0 1 0 56.009669 56.009669A56.009669 56.009669 0 0 0 59.081981 0zM268.337436 92.343079h714.071226a38.415554 38.415554 0 1 0 0-76.831107H268.337436a38.415554 38.415554 0 0 0 0 76.831107zM59.081981 439.124133a56.009669 56.009669 0 1 0 56.009669 56.009669 56.009669 56.009669 0 0 0-56.009669-56.009669zM982.408662 455.989498H268.337436a38.415554 38.415554 0 0 0 0 76.831107h714.071226a38.415554 38.415554 0 0 0 0-76.831107zM59.081981 911.978996a56.009669 56.009669 0 1 0 56.009669 56.009669 56.009669 56.009669 0 0 0-56.009669-56.009669zM982.408662 932.071684H268.337436a38.415554 38.415554 0 0 0 0 76.831108h714.071226a38.415554 38.415554 0 0 0 0-76.831108z" p-id="2864"></path></svg>