<?xml version="1.0" standalone="no"?><!DOCTYPE svg PUBLIC "-//W3C//DTD SVG 1.1//EN" "http://www.w3.org/Graphics/SVG/1.1/DTD/svg11.dtd"><svg t="1530265170483" class="icon" style="" viewBox="0 0 1024 1024" version="1.1" xmlns="http://www.w3.org/2000/svg" p-id="5480" xmlns:xlink="http://www.w3.org/1999/xlink" width="32" height="32"><defs><style type="text/css"></style></defs><path d="M800.3 841.9h-57.4c-13 0-23.6-10.6-23.6-23.6s10.6-23.6 23.6-23.6h57.4v-57.4c0-13 10.6-23.6 23.6-23.6s23.6 10.6 23.6 23.6v57.4h57.4c13 0 23.6 10.6 23.6 23.6s-10.6 23.6-23.6 23.6h-57.4v57.4c0 13-10.6 23.6-23.6 23.6s-23.6-10.6-23.6-23.6v-57.4zM823.9 960c78.3 0 141.8-63.5 141.8-141.8s-63.5-141.8-141.8-141.8-141.8 63.5-141.8 141.8S745.6 960 823.9 960z" p-id="5481"></path><path d="M125.6 601.5l173.5-241.3c6.6-9.1 14.5-9.2 20.9-0.5l164.6 224c23.8 32.4 68.1 39.9 100.3 16.9L688.2 527c13-9.3 34.7-7.8 46.3 3.1l165.2 136.3 14.2-47.2L765.6 492c-27.7-26.1-72.9-29.2-103.6-7.3l-103.2 73.6c-11.8 8.4-28.5 5.6-37-6l-164.6-224c-25.5-34.7-70.1-34.3-95.4 0.9L88.2 570.5l37.4 31zM491.7 351.4c46.6 0 84.4-40.5 84.4-90.5s-37.8-90.5-84.4-90.5c-46.6 0-84.4 40.5-84.4 90.5s37.9 90.5 84.4 90.5z m0-50.7c-20.5 0-37.1-17.8-37.1-39.7s16.6-39.7 37.1-39.7 37.1 17.8 37.1 39.7-16.5 39.7-37.1 39.7z" p-id="5482"></path><path d="M654.1 867.6H191.8c-31.3 0-56.8-25.5-56.8-56.5V167.5c0-31.1 25.5-56.5 56.6-56.5h643.7c31.2 0 56.6 25.4 56.6 56.9v480.8c0 13 10.5 23.5 23.4 23.5s23.4-10.5 23.4-23.5V167.9c0-57.4-46.3-103.9-103.4-103.9H191.5c-56.9 0-103.4 46.4-103.4 103.5v643.6c0 57 46.5 103.5 103.7 103.5h462.3c12.9 0 23.4-10.5 23.4-23.5s-10.5-23.5-23.4-23.5zM15.8 203.9v496.2c0 13 10.6 23.6 23.6 23.6S63 713.1 63 700.1V203.9c0-13-10.6-23.6-23.6-23.6s-23.6 10.5-23.6 23.6zM960.9 203.9v496.2c0 13 10.6 23.6 23.6 23.6s23.6-10.6 23.6-23.6V203.9c0-13-10.6-23.6-23.6-23.6s-23.6 10.5-23.6 23.6z" p-id="5483"></path></svg>